# xmcd
#
# Track frame offsets:
#	182
#	12852
#	25587
#	41695
#	54907
#	74005
#	98285
#	121437
#	134125
#	147457
#	170410
#	186262
#	201760
#	215827
#	231252
#	245132
#
# Disc length: 3447
#
# Revision: 1
# Processed by: cddbd v1.5.1PL0 Copyright (c) Steve Scherf et al.
# Submitted via: CDex 1.51
# Normalized: r0:DSETVAR1,TDELIM( - )
#
DISCID=f10d7510
DTITLE=Various Artist - 16 All-time Jazz Sessions vol3
DYEAR=1900
DGENRE=Jazz
TTITLE0=Oscar Peterson - I've got You under my Skin
TTITLE1=Count Basie - Short George
TTITLE2=Lena Horne - Good for nothing Joe
TTITLE3=Louis Armstrong - On the sunny Side of the Street
TTITLE4=Dave Brubeck - Evenin'
TTITLE5=Lionel Hampton - More crazy
TTITLE6=Miles Davis - I could write a Book
TTITLE7=George Shearing - Cottontop
TTITLE8=Harry James - Harry's Delight
TTITLE9=Modern Jazz Quartet - Bluesology
TTITLE10=Benny Goodman - Jumpin' at the Woodside
TTITLE11=Woody Herman - Makin' Whoopee
TTITLE12=Gene Krupa - Swedish Snapps
TTITLE13=Django Reinhart - Chicago
TTITLE14=Duke Ellington - Mood Indigo
TTITLE15=Charlie Parker - Crazeology
EXTD=
EXTT0=
EXTT1=
EXTT2=
EXTT3=
EXTT4=
EXTT5=
EXTT6=
EXTT7=
EXTT8=
EXTT9=
EXTT10=
EXTT11=
EXTT12=
EXTT13=
EXTT14=
EXTT15=
PLAYORDER=
